<mxfile host="app.diagrams.net" modified="2024-01-11T09:48:14.855Z" agent="Mozilla/5.0 (Windows NT 10.0; Win64; x64; rv:121.0) Gecko/20100101 Firefox/121.0" etag="VZFk7tKODlrYt8iWKbjp" version="22.1.16" type="device">
  <diagram name="Page-1" id="hoaiyCuWwb8OJLDV8PnN">
    <mxGraphModel dx="1728" dy="1055" grid="1" gridSize="10" guides="1" tooltips="1" connect="1" arrows="1" fold="1" page="1" pageScale="1" pageWidth="1920" pageHeight="1200" math="0" shadow="0">
      <root>
        <mxCell id="0" />
        <mxCell id="1" parent="0" />
        <mxCell id="DUvG2C7d4kw6C9XwyTJ0-40" style="rounded=0;orthogonalLoop=1;jettySize=auto;html=1;exitX=1;exitY=0.3333333333333333;exitDx=0;exitDy=0;exitPerimeter=0;entryX=0;entryY=0.5;entryDx=0;entryDy=0;endArrow=none;endFill=0;" edge="1" parent="1" source="DUvG2C7d4kw6C9XwyTJ0-1" target="DUvG2C7d4kw6C9XwyTJ0-3">
          <mxGeometry relative="1" as="geometry" />
        </mxCell>
        <mxCell id="DUvG2C7d4kw6C9XwyTJ0-42" style="rounded=0;orthogonalLoop=1;jettySize=auto;html=1;exitX=1;exitY=0.3333333333333333;exitDx=0;exitDy=0;exitPerimeter=0;entryX=0;entryY=0.5;entryDx=0;entryDy=0;endArrow=none;endFill=0;" edge="1" parent="1" source="DUvG2C7d4kw6C9XwyTJ0-1" target="DUvG2C7d4kw6C9XwyTJ0-41">
          <mxGeometry relative="1" as="geometry" />
        </mxCell>
        <mxCell id="DUvG2C7d4kw6C9XwyTJ0-1" value="Joueur" style="shape=umlActor;verticalLabelPosition=bottom;verticalAlign=top;html=1;outlineConnect=0;" vertex="1" parent="1">
          <mxGeometry x="220" y="440" width="70" height="120" as="geometry" />
        </mxCell>
        <mxCell id="DUvG2C7d4kw6C9XwyTJ0-2" value="&lt;div&gt;Aller dans les paramètres&lt;/div&gt;" style="ellipse;whiteSpace=wrap;html=1;" vertex="1" parent="1">
          <mxGeometry x="660" y="310" width="120" height="50" as="geometry" />
        </mxCell>
        <mxCell id="DUvG2C7d4kw6C9XwyTJ0-3" value="Lancer une partie" style="ellipse;whiteSpace=wrap;html=1;" vertex="1" parent="1">
          <mxGeometry x="640" y="670" width="120" height="50" as="geometry" />
        </mxCell>
        <mxCell id="DUvG2C7d4kw6C9XwyTJ0-4" value="Changer la taille de la grille" style="ellipse;whiteSpace=wrap;html=1;" vertex="1" parent="1">
          <mxGeometry x="490" y="440" width="130" height="60" as="geometry" />
        </mxCell>
        <mxCell id="DUvG2C7d4kw6C9XwyTJ0-5" value="Changer le nombre de jetons requis pour gagner" style="ellipse;whiteSpace=wrap;html=1;" vertex="1" parent="1">
          <mxGeometry x="630" y="440" width="180" height="60" as="geometry" />
        </mxCell>
        <mxCell id="DUvG2C7d4kw6C9XwyTJ0-6" value="Changer la difficulté du bot" style="ellipse;whiteSpace=wrap;html=1;" vertex="1" parent="1">
          <mxGeometry x="830" y="440" width="180" height="60" as="geometry" />
        </mxCell>
        <mxCell id="DUvG2C7d4kw6C9XwyTJ0-7" value="" style="endArrow=classic;html=1;rounded=0;exitX=0.5;exitY=0;exitDx=0;exitDy=0;entryX=0.5;entryY=1;entryDx=0;entryDy=0;dashed=1;strokeWidth=2;" edge="1" parent="1" source="DUvG2C7d4kw6C9XwyTJ0-4" target="DUvG2C7d4kw6C9XwyTJ0-2">
          <mxGeometry width="50" height="50" relative="1" as="geometry">
            <mxPoint x="670" y="410" as="sourcePoint" />
            <mxPoint x="980" y="620" as="targetPoint" />
          </mxGeometry>
        </mxCell>
        <mxCell id="DUvG2C7d4kw6C9XwyTJ0-8" value="&lt;font style=&quot;font-size: 13px;&quot;&gt;&amp;lt;&amp;lt;extend&amp;gt;&amp;gt;&lt;/font&gt;" style="edgeLabel;html=1;align=center;verticalAlign=middle;resizable=0;points=[];" vertex="1" connectable="0" parent="DUvG2C7d4kw6C9XwyTJ0-7">
          <mxGeometry x="0.0531" y="2" relative="1" as="geometry">
            <mxPoint as="offset" />
          </mxGeometry>
        </mxCell>
        <mxCell id="DUvG2C7d4kw6C9XwyTJ0-9" value="" style="endArrow=classic;html=1;rounded=0;exitX=0.533;exitY=-0.033;exitDx=0;exitDy=0;entryX=0.5;entryY=1;entryDx=0;entryDy=0;dashed=1;strokeWidth=2;exitPerimeter=0;" edge="1" parent="1" source="DUvG2C7d4kw6C9XwyTJ0-5" target="DUvG2C7d4kw6C9XwyTJ0-2">
          <mxGeometry width="50" height="50" relative="1" as="geometry">
            <mxPoint x="565" y="450" as="sourcePoint" />
            <mxPoint x="730" y="360" as="targetPoint" />
          </mxGeometry>
        </mxCell>
        <mxCell id="DUvG2C7d4kw6C9XwyTJ0-10" value="&lt;font style=&quot;font-size: 13px;&quot;&gt;&amp;lt;&amp;lt;extend&amp;gt;&amp;gt;&lt;/font&gt;" style="edgeLabel;html=1;align=center;verticalAlign=middle;resizable=0;points=[];" vertex="1" connectable="0" parent="DUvG2C7d4kw6C9XwyTJ0-9">
          <mxGeometry x="0.0531" y="2" relative="1" as="geometry">
            <mxPoint as="offset" />
          </mxGeometry>
        </mxCell>
        <mxCell id="DUvG2C7d4kw6C9XwyTJ0-11" value="" style="endArrow=classic;html=1;rounded=0;exitX=0.5;exitY=0;exitDx=0;exitDy=0;entryX=0.589;entryY=1.05;entryDx=0;entryDy=0;dashed=1;strokeWidth=2;entryPerimeter=0;" edge="1" parent="1" source="DUvG2C7d4kw6C9XwyTJ0-6" target="DUvG2C7d4kw6C9XwyTJ0-2">
          <mxGeometry width="50" height="50" relative="1" as="geometry">
            <mxPoint x="575" y="460" as="sourcePoint" />
            <mxPoint x="740" y="370" as="targetPoint" />
          </mxGeometry>
        </mxCell>
        <mxCell id="DUvG2C7d4kw6C9XwyTJ0-12" value="&lt;font style=&quot;font-size: 13px;&quot;&gt;&amp;lt;&amp;lt;extend&amp;gt;&amp;gt;&lt;/font&gt;" style="edgeLabel;html=1;align=center;verticalAlign=middle;resizable=0;points=[];" vertex="1" connectable="0" parent="DUvG2C7d4kw6C9XwyTJ0-11">
          <mxGeometry x="0.0531" y="2" relative="1" as="geometry">
            <mxPoint as="offset" />
          </mxGeometry>
        </mxCell>
        <mxCell id="DUvG2C7d4kw6C9XwyTJ0-13" value="Changer la couleur de ses jetons" style="ellipse;whiteSpace=wrap;html=1;" vertex="1" parent="1">
          <mxGeometry x="500" y="180" width="120" height="60" as="geometry" />
        </mxCell>
        <mxCell id="DUvG2C7d4kw6C9XwyTJ0-14" value="Changer la couleur des jetons du bot" style="ellipse;whiteSpace=wrap;html=1;" vertex="1" parent="1">
          <mxGeometry x="640" y="180" width="120" height="60" as="geometry" />
        </mxCell>
        <mxCell id="DUvG2C7d4kw6C9XwyTJ0-15" value="Changer la couleur de la grille" style="ellipse;whiteSpace=wrap;html=1;" vertex="1" parent="1">
          <mxGeometry x="790" y="180" width="120" height="60" as="geometry" />
        </mxCell>
        <mxCell id="DUvG2C7d4kw6C9XwyTJ0-17" value="" style="endArrow=classic;html=1;rounded=0;exitX=0.5;exitY=1;exitDx=0;exitDy=0;entryX=0.23;entryY=0.161;entryDx=0;entryDy=0;dashed=1;strokeWidth=2;entryPerimeter=0;" edge="1" parent="1" source="DUvG2C7d4kw6C9XwyTJ0-13" target="DUvG2C7d4kw6C9XwyTJ0-2">
          <mxGeometry width="50" height="50" relative="1" as="geometry">
            <mxPoint x="565" y="450" as="sourcePoint" />
            <mxPoint x="720" y="370" as="targetPoint" />
          </mxGeometry>
        </mxCell>
        <mxCell id="DUvG2C7d4kw6C9XwyTJ0-18" value="&lt;font style=&quot;font-size: 13px;&quot;&gt;&amp;lt;&amp;lt;extend&amp;gt;&amp;gt;&lt;/font&gt;" style="edgeLabel;html=1;align=center;verticalAlign=middle;resizable=0;points=[];" vertex="1" connectable="0" parent="DUvG2C7d4kw6C9XwyTJ0-17">
          <mxGeometry x="0.0531" y="2" relative="1" as="geometry">
            <mxPoint as="offset" />
          </mxGeometry>
        </mxCell>
        <mxCell id="DUvG2C7d4kw6C9XwyTJ0-19" value="" style="endArrow=classic;html=1;rounded=0;exitX=0.5;exitY=1;exitDx=0;exitDy=0;dashed=1;strokeWidth=2;entryX=0.5;entryY=0;entryDx=0;entryDy=0;" edge="1" parent="1" source="DUvG2C7d4kw6C9XwyTJ0-14" target="DUvG2C7d4kw6C9XwyTJ0-2">
          <mxGeometry width="50" height="50" relative="1" as="geometry">
            <mxPoint x="575" y="460" as="sourcePoint" />
            <mxPoint x="720" y="320" as="targetPoint" />
          </mxGeometry>
        </mxCell>
        <mxCell id="DUvG2C7d4kw6C9XwyTJ0-20" value="&lt;font style=&quot;font-size: 13px;&quot;&gt;&amp;lt;&amp;lt;extend&amp;gt;&amp;gt;&lt;/font&gt;" style="edgeLabel;html=1;align=center;verticalAlign=middle;resizable=0;points=[];" vertex="1" connectable="0" parent="DUvG2C7d4kw6C9XwyTJ0-19">
          <mxGeometry x="0.0531" y="2" relative="1" as="geometry">
            <mxPoint as="offset" />
          </mxGeometry>
        </mxCell>
        <mxCell id="DUvG2C7d4kw6C9XwyTJ0-21" value="" style="endArrow=classic;html=1;rounded=0;exitX=0.5;exitY=1;exitDx=0;exitDy=0;dashed=1;strokeWidth=2;entryX=0.575;entryY=0.064;entryDx=0;entryDy=0;entryPerimeter=0;" edge="1" parent="1" source="DUvG2C7d4kw6C9XwyTJ0-15" target="DUvG2C7d4kw6C9XwyTJ0-2">
          <mxGeometry width="50" height="50" relative="1" as="geometry">
            <mxPoint x="710" y="250" as="sourcePoint" />
            <mxPoint x="730" y="330" as="targetPoint" />
          </mxGeometry>
        </mxCell>
        <mxCell id="DUvG2C7d4kw6C9XwyTJ0-22" value="&lt;font style=&quot;font-size: 13px;&quot;&gt;&amp;lt;&amp;lt;extend&amp;gt;&amp;gt;&lt;/font&gt;" style="edgeLabel;html=1;align=center;verticalAlign=middle;resizable=0;points=[];" vertex="1" connectable="0" parent="DUvG2C7d4kw6C9XwyTJ0-21">
          <mxGeometry x="0.0531" y="2" relative="1" as="geometry">
            <mxPoint as="offset" />
          </mxGeometry>
        </mxCell>
        <mxCell id="DUvG2C7d4kw6C9XwyTJ0-23" value="" style="endArrow=none;html=1;rounded=0;exitX=1;exitY=0.3333333333333333;exitDx=0;exitDy=0;exitPerimeter=0;entryX=0;entryY=0.5;entryDx=0;entryDy=0;" edge="1" parent="1" source="DUvG2C7d4kw6C9XwyTJ0-1" target="DUvG2C7d4kw6C9XwyTJ0-2">
          <mxGeometry width="50" height="50" relative="1" as="geometry">
            <mxPoint x="860" y="560" as="sourcePoint" />
            <mxPoint x="910" y="510" as="targetPoint" />
          </mxGeometry>
        </mxCell>
        <mxCell id="DUvG2C7d4kw6C9XwyTJ0-24" value="Poser un jeton" style="ellipse;whiteSpace=wrap;html=1;" vertex="1" parent="1">
          <mxGeometry x="495" y="540" width="120" height="60" as="geometry" />
        </mxCell>
        <mxCell id="DUvG2C7d4kw6C9XwyTJ0-25" value="Utiliser son bonus" style="ellipse;whiteSpace=wrap;html=1;" vertex="1" parent="1">
          <mxGeometry x="640" y="540" width="120" height="60" as="geometry" />
        </mxCell>
        <mxCell id="DUvG2C7d4kw6C9XwyTJ0-26" value="Quitter la partie" style="ellipse;whiteSpace=wrap;html=1;" vertex="1" parent="1">
          <mxGeometry x="780" y="540" width="120" height="60" as="geometry" />
        </mxCell>
        <mxCell id="DUvG2C7d4kw6C9XwyTJ0-27" value="Faire undo" style="ellipse;whiteSpace=wrap;html=1;" vertex="1" parent="1">
          <mxGeometry x="580" y="770" width="120" height="60" as="geometry" />
        </mxCell>
        <mxCell id="DUvG2C7d4kw6C9XwyTJ0-28" value="Faire redo" style="ellipse;whiteSpace=wrap;html=1;" vertex="1" parent="1">
          <mxGeometry x="740" y="760" width="120" height="60" as="geometry" />
        </mxCell>
        <mxCell id="DUvG2C7d4kw6C9XwyTJ0-30" value="" style="endArrow=classic;html=1;rounded=0;exitX=0.5;exitY=1;exitDx=0;exitDy=0;entryX=0.359;entryY=0.037;entryDx=0;entryDy=0;dashed=1;strokeWidth=2;entryPerimeter=0;" edge="1" parent="1" source="DUvG2C7d4kw6C9XwyTJ0-24" target="DUvG2C7d4kw6C9XwyTJ0-3">
          <mxGeometry width="50" height="50" relative="1" as="geometry">
            <mxPoint x="565" y="450" as="sourcePoint" />
            <mxPoint x="730" y="370" as="targetPoint" />
          </mxGeometry>
        </mxCell>
        <mxCell id="DUvG2C7d4kw6C9XwyTJ0-31" value="&lt;font style=&quot;font-size: 13px;&quot;&gt;&amp;lt;&amp;lt;extend&amp;gt;&amp;gt;&lt;/font&gt;" style="edgeLabel;html=1;align=center;verticalAlign=middle;resizable=0;points=[];" vertex="1" connectable="0" parent="DUvG2C7d4kw6C9XwyTJ0-30">
          <mxGeometry x="0.0531" y="2" relative="1" as="geometry">
            <mxPoint as="offset" />
          </mxGeometry>
        </mxCell>
        <mxCell id="DUvG2C7d4kw6C9XwyTJ0-32" value="" style="endArrow=classic;html=1;rounded=0;exitX=0.5;exitY=1;exitDx=0;exitDy=0;entryX=0.5;entryY=0;entryDx=0;entryDy=0;dashed=1;strokeWidth=2;" edge="1" parent="1" source="DUvG2C7d4kw6C9XwyTJ0-25" target="DUvG2C7d4kw6C9XwyTJ0-3">
          <mxGeometry width="50" height="50" relative="1" as="geometry">
            <mxPoint x="565" y="610" as="sourcePoint" />
            <mxPoint x="710" y="680" as="targetPoint" />
          </mxGeometry>
        </mxCell>
        <mxCell id="DUvG2C7d4kw6C9XwyTJ0-33" value="&lt;font style=&quot;font-size: 13px;&quot;&gt;&amp;lt;&amp;lt;extend&amp;gt;&amp;gt;&lt;/font&gt;" style="edgeLabel;html=1;align=center;verticalAlign=middle;resizable=0;points=[];" vertex="1" connectable="0" parent="DUvG2C7d4kw6C9XwyTJ0-32">
          <mxGeometry x="0.0531" y="2" relative="1" as="geometry">
            <mxPoint as="offset" />
          </mxGeometry>
        </mxCell>
        <mxCell id="DUvG2C7d4kw6C9XwyTJ0-34" value="" style="endArrow=classic;html=1;rounded=0;exitX=0.5;exitY=1;exitDx=0;exitDy=0;entryX=1;entryY=0;entryDx=0;entryDy=0;dashed=1;strokeWidth=2;" edge="1" parent="1" source="DUvG2C7d4kw6C9XwyTJ0-26" target="DUvG2C7d4kw6C9XwyTJ0-3">
          <mxGeometry width="50" height="50" relative="1" as="geometry">
            <mxPoint x="575" y="620" as="sourcePoint" />
            <mxPoint x="720" y="690" as="targetPoint" />
          </mxGeometry>
        </mxCell>
        <mxCell id="DUvG2C7d4kw6C9XwyTJ0-35" value="&lt;font style=&quot;font-size: 13px;&quot;&gt;&amp;lt;&amp;lt;extend&amp;gt;&amp;gt;&lt;/font&gt;" style="edgeLabel;html=1;align=center;verticalAlign=middle;resizable=0;points=[];" vertex="1" connectable="0" parent="DUvG2C7d4kw6C9XwyTJ0-34">
          <mxGeometry x="0.0531" y="2" relative="1" as="geometry">
            <mxPoint as="offset" />
          </mxGeometry>
        </mxCell>
        <mxCell id="DUvG2C7d4kw6C9XwyTJ0-36" value="" style="endArrow=classic;html=1;rounded=0;exitX=0.609;exitY=0.007;exitDx=0;exitDy=0;entryX=0;entryY=1;entryDx=0;entryDy=0;dashed=1;strokeWidth=2;exitPerimeter=0;" edge="1" parent="1" source="DUvG2C7d4kw6C9XwyTJ0-27" target="DUvG2C7d4kw6C9XwyTJ0-3">
          <mxGeometry width="50" height="50" relative="1" as="geometry">
            <mxPoint x="585" y="630" as="sourcePoint" />
            <mxPoint x="730" y="700" as="targetPoint" />
          </mxGeometry>
        </mxCell>
        <mxCell id="DUvG2C7d4kw6C9XwyTJ0-37" value="&lt;font style=&quot;font-size: 13px;&quot;&gt;&amp;lt;&amp;lt;extend&amp;gt;&amp;gt;&lt;/font&gt;" style="edgeLabel;html=1;align=center;verticalAlign=middle;resizable=0;points=[];" vertex="1" connectable="0" parent="DUvG2C7d4kw6C9XwyTJ0-36">
          <mxGeometry x="0.0531" y="2" relative="1" as="geometry">
            <mxPoint as="offset" />
          </mxGeometry>
        </mxCell>
        <mxCell id="DUvG2C7d4kw6C9XwyTJ0-38" value="" style="endArrow=classic;html=1;rounded=0;exitX=0.5;exitY=0;exitDx=0;exitDy=0;entryX=0.5;entryY=1;entryDx=0;entryDy=0;dashed=1;strokeWidth=2;" edge="1" parent="1" source="DUvG2C7d4kw6C9XwyTJ0-28" target="DUvG2C7d4kw6C9XwyTJ0-3">
          <mxGeometry width="50" height="50" relative="1" as="geometry">
            <mxPoint x="595" y="640" as="sourcePoint" />
            <mxPoint x="740" y="710" as="targetPoint" />
          </mxGeometry>
        </mxCell>
        <mxCell id="DUvG2C7d4kw6C9XwyTJ0-39" value="&lt;font style=&quot;font-size: 13px;&quot;&gt;&amp;lt;&amp;lt;extend&amp;gt;&amp;gt;&lt;/font&gt;" style="edgeLabel;html=1;align=center;verticalAlign=middle;resizable=0;points=[];" vertex="1" connectable="0" parent="DUvG2C7d4kw6C9XwyTJ0-38">
          <mxGeometry x="0.0531" y="2" relative="1" as="geometry">
            <mxPoint as="offset" />
          </mxGeometry>
        </mxCell>
        <mxCell id="DUvG2C7d4kw6C9XwyTJ0-41" value="Quitter le jeu" style="ellipse;whiteSpace=wrap;html=1;" vertex="1" parent="1">
          <mxGeometry x="630" y="890" width="120" height="50" as="geometry" />
        </mxCell>
      </root>
    </mxGraphModel>
  </diagram>
</mxfile>
